<?xml version="1.0" standalone="no"?><!DOCTYPE svg PUBLIC "-//W3C//DTD SVG 1.1//EN" "http://www.w3.org/Graphics/SVG/1.1/DTD/svg11.dtd"><svg t="1651294052396" class="icon" viewBox="0 0 1024 1024" version="1.1" xmlns="http://www.w3.org/2000/svg" p-id="13366" xmlns:xlink="http://www.w3.org/1999/xlink" width="200" height="200"><defs><style type="text/css">@font-face { font-family: feedback-iconfont; src: url("//at.alicdn.com/t/font_1031158_u69w8yhxdu.woff2?t=1630033759944") format("woff2"), url("//at.alicdn.com/t/font_1031158_u69w8yhxdu.woff?t=1630033759944") format("woff"), url("//at.alicdn.com/t/font_1031158_u69w8yhxdu.ttf?t=1630033759944") format("truetype"); }
</style></defs><path d="M457.234618 176.872727h275.223273a15.704436 15.704436 0 0 1 13.135127 24.296728l-143.173818 218.912581a15.704436 15.704436 0 0 0 12.511418 24.287419l114.688 4.654545a15.704436 15.704436 0 0 1 11.394327 25.767564L411.796945 868.305455a15.704436 15.704436 0 0 1-27.247709-13.991564l69.259637-268.753455a15.704436 15.704436 0 0 0-15.201746-19.623563H294.353455a15.704436 15.704436 0 0 1-14.289455-22.211491l162.881164-357.655273A15.704436 15.704436 0 0 1 457.234618 176.872727z" fill="#FFA448" p-id="13367"></path><path d="M733.062982 177.803636a15.704436 15.704436 0 0 1 13.144436 24.287419l-143.173818 218.92189a15.704436 15.704436 0 0 0 12.502109 24.27811l114.688 4.663854c4.952436 0.2048 9.281164 2.681018 12.008727 6.386036L459.4688 566.858473h-164.491636a15.704436 15.704436 0 0 1-14.289455-22.202182l162.871855-357.664582a15.704436 15.704436 0 0 1 14.289454-9.197382h275.213964z" fill="#FFBF40" p-id="13368"></path><path d="M733.062982 177.803636c6.0416 0 11.282618 3.397818 13.907782 8.3968l-465.892073 372.270546a15.639273 15.639273 0 0 1-0.390982-13.814691l162.871855-357.664582a15.704436 15.704436 0 0 1 14.289454-9.197382h275.213964z" fill="#FFD44E" p-id="13369"></path></svg>